# xmcd
# 
# Track frame offsets:
#     150
#     19020
#     39717
#     57260
#     80470
#     99600
#     122852
#     139880
#     159795
#     176760
# 
# Disc length: 2601
# 
# Revision: 2
# Processed by: cddbd v1.5.2PL0 Copyright (c) Steve Scherf et al.
# Submitted via: fre:ac v1.1beta1pre4
# 
DISCID=800a270a
DTITLE=Michael Martin Murphey - The Horse Legends
DYEAR=1997
DGENRE=Western
TTITLE0=Tennessee Stud
TTITLE1=Running Shadow
TTITLE2=Ponies
TTITLE3=Wildfire
TTITLE4=The Running Blood
TTITLE5=See How All The Horses Come Dancing
TTITLE6=Palomino Days
TTITLE7=Run For The Roses
TTITLE8=The Pony Man
TTITLE9=Quarter Horse Rider (America's Horse)
EXTD=Track 1 duet with Johnny Cash
EXTT0=
EXTT1=
EXTT2=
EXTT3=
EXTT4=
EXTT5=
EXTT6=
EXTT7=
EXTT8=
EXTT9=
PLAYORDER=
